<svg width="12" height="12" viewBox="0 0 12 12" fill="none" xmlns="http://www.w3.org/2000/svg">
<g id="monetization_on" clip-path="url(#clip0_0_139)">
<path id="Vector" d="M6 1C3.24 1 1 3.24 1 6C1 8.76 3.24 11 6 11C8.76 11 11 8.76 11 6C11 3.24 8.76 1 6 1ZM6.705 9.045V10H5.37V9.035C4.515 8.855 3.79 8.305 3.735 7.335H4.715C4.765 7.86 5.125 8.27 6.04 8.27C7.02 8.27 7.24 7.78 7.24 7.475C7.24 7.06 7.02 6.67 5.905 6.405C4.665 6.105 3.815 5.595 3.815 4.57C3.815 3.71 4.51 3.15 5.37 2.965V2H6.705V2.975C7.635 3.2 8.1 3.905 8.13 4.67H7.15C7.125 4.115 6.83 3.735 6.04 3.735C5.29 3.735 4.84 4.075 4.84 4.555C4.84 4.975 5.165 5.25 6.175 5.51C7.185 5.77 8.265 6.205 8.265 7.465C8.26 8.38 7.575 8.88 6.705 9.045Z" fill="#FB7678"/>
</g>
<defs>
<clipPath id="clip0_0_139">
<rect width="12" height="12" fill="white"/>
</clipPath>
</defs>
</svg>
