<svg width="8" height="8" viewBox="0 0 8 8" fill="none" xmlns="http://www.w3.org/2000/svg">
<g id="fi-sr-star" clip-path="url(#clip0_0_21)">
<path id="Vector" d="M0.442154 4.13348L1.62882 5.00015L1.17815 6.39581C1.10532 6.61228 1.1044 6.84648 1.17552 7.06351C1.24665 7.28054 1.386 7.46877 1.57282 7.60015C1.75644 7.73574 1.97895 7.80838 2.2072 7.80724C2.43546 7.8061 2.65723 7.73124 2.83949 7.59382L3.99982 6.73981L5.16049 7.59281C5.34377 7.72763 5.56509 7.80086 5.79261 7.80197C6.02014 7.80308 6.24215 7.73201 6.42674 7.59898C6.61133 7.46596 6.74899 7.27783 6.81992 7.06164C6.89085 6.84545 6.8914 6.61234 6.82149 6.39581L6.37082 5.00015L7.55749 4.13348C7.74053 3.99965 7.87661 3.8114 7.94627 3.59561C8.01593 3.37982 8.01562 3.14754 7.94538 2.93194C7.87514 2.71634 7.73856 2.52846 7.55516 2.39512C7.37176 2.26178 7.15091 2.1898 6.92415 2.18948H5.46649L5.02415 0.810814C4.95459 0.5938 4.81791 0.404485 4.63381 0.270169C4.44971 0.135853 4.22771 0.0634766 3.99982 0.0634766C3.77193 0.0634766 3.54993 0.135853 3.36583 0.270169C3.18173 0.404485 3.04505 0.5938 2.97549 0.810814L2.53315 2.18948H1.07682C0.850068 2.1898 0.629217 2.26178 0.445813 2.39512C0.26241 2.52846 0.125834 2.71634 0.055594 2.93194C-0.0146458 3.14754 -0.0149567 3.37982 0.0547057 3.59561C0.124368 3.8114 0.26044 3.99965 0.443487 4.13348H0.442154Z" fill="#EFA342"/>
</g>
<defs>
<clipPath id="clip0_0_21">
<rect width="8" height="8" fill="white"/>
</clipPath>
</defs>
</svg>
