<?xml version="1.0" encoding="iso-8859-1"?>
<!-- Uploaded to: SVG Repo, www.svgrepo.com, Generator: SVG Repo Mixer Tools -->
<svg fill="#f44336" height="800px" width="800px" version="1.1" id="Layer_1" xmlns="http://www.w3.org/2000/svg" xmlns:xlink="http://www.w3.org/1999/xlink" 
	 viewBox="0 0 512 512" xml:space="preserve">
<g>
	<g>
		<path d="M371.711,169.967l9.006-15.599l0.56,0.323c1.286,0.743,2.692,1.096,4.077,1.096c2.824,0,5.57-1.466,7.083-4.086
			c2.256-3.908,0.917-8.904-2.99-11.161l-35.936-20.747c-0.005-0.003-7.639-4.41-7.639-4.41c-3.909-2.257-8.904-0.918-11.161,2.99
			c-2.256,3.908-0.917,8.904,2.99,11.161l0.561,0.324l-8.965,15.528c-15.356-6.42-31.719-10.89-48.787-13.091v-23.428
			c19.761-9.38,32.681-29.461,32.681-51.676C313.191,25.656,287.536,0,256,0s-57.191,25.656-57.191,57.192
			c0,22.215,12.92,42.296,32.681,51.676v23.428c-17.067,2.201-33.431,6.671-48.787,13.091l-8.965-15.528l0.561-0.324
			c3.908-2.256,5.246-7.253,2.99-11.161c-2.256-3.909-7.253-5.246-11.16-2.99l-7.633,4.408c-0.005,0.003-35.941,20.75-35.941,20.75
			c-3.908,2.256-5.246,7.253-2.99,11.161c1.513,2.621,4.259,4.086,7.083,4.086c1.386,0,2.791-0.353,4.077-1.096l0.56-0.324
			l9.006,15.599c-45.516,34.869-74.927,89.758-74.927,151.394C65.362,426.48,150.882,512,256,512s190.638-85.52,190.638-190.638
			C446.638,259.726,417.227,204.837,371.711,169.967z M352.414,138.028l14.151,8.17l-8.286,14.351
			c-4.584-2.926-9.304-5.654-14.142-8.188L352.414,138.028z M215.149,57.192c0-22.526,18.325-40.851,40.851-40.851
			s40.851,18.325,40.851,40.851c0,13.066-6.255,25.098-16.34,32.682V73.532c0-4.512-3.658-8.17-8.17-8.17H239.66
			c-4.512,0-8.17,3.658-8.17,8.17v16.341C221.404,82.289,215.149,70.257,215.149,57.192z M264.17,81.702v49.208
			c-2.71-0.114-5.432-0.186-8.17-0.186c-2.739,0-5.46,0.072-8.17,0.186V81.702H264.17z M159.586,138.028l8.276,14.335
			c-4.838,2.534-9.558,5.262-14.142,8.188l-8.285-14.352L159.586,138.028z M256,495.66c-96.108,0-174.298-78.19-174.298-174.298
			S159.892,147.064,256,147.064s174.298,78.19,174.298,174.298S352.108,495.66,256,495.66z"/>
	</g>
</g>
<g>
	<g>
		<path d="M256,196.085c-4.512,0-8.17,3.658-8.17,8.17v10.894c0,4.512,3.658,8.17,8.17,8.17c4.512,0,8.17-3.658,8.17-8.17v-10.894
			C264.17,199.743,260.512,196.085,256,196.085z"/>
	</g>
</g>
<g>
	<g>
		<path d="M344.584,232.778c-3.191-3.191-8.364-3.191-11.554,0l-7.703,7.703c-3.191,3.191-3.191,8.364,0,11.554
			c1.595,1.596,3.685,2.393,5.777,2.393c2.09,0,4.182-0.797,5.777-2.393l7.703-7.703
			C347.774,241.141,347.774,235.968,344.584,232.778z"/>
	</g>
</g>
<g>
	<g>
		<path d="M373.106,313.191h-10.894c-4.512,0-8.17,3.658-8.17,8.17s3.658,8.17,8.17,8.17h10.894c4.512,0,8.17-3.658,8.17-8.17
			S377.618,313.191,373.106,313.191z"/>
	</g>
</g>
<g>
	<g>
		<path d="M344.584,398.392l-7.703-7.703c-3.191-3.191-8.364-3.191-11.554,0c-3.192,3.19-3.192,8.363,0,11.554l7.703,7.703
			c1.595,1.595,3.686,2.393,5.777,2.393c2.091,0,4.182-0.797,5.777-2.393C347.774,406.755,347.774,401.581,344.584,398.392z"/>
	</g>
</g>
<g>
	<g>
		<path d="M256,419.404c-4.512,0-8.17,3.658-8.17,8.17v10.894c0,4.512,3.658,8.17,8.17,8.17c4.512,0,8.17-3.658,8.17-8.17v-10.894
			C264.17,423.062,260.512,419.404,256,419.404z"/>
	</g>
</g>
<g>
	<g>
		<path d="M186.673,390.689c-3.191-3.191-8.364-3.191-11.554,0l-7.703,7.703c-3.192,3.191-3.192,8.364,0,11.554
			c1.595,1.595,3.686,2.393,5.777,2.393c2.091,0,4.182-0.797,5.777-2.393l7.703-7.703
			C189.864,399.052,189.864,393.878,186.673,390.689z"/>
	</g>
</g>
<g>
	<g>
		<path d="M149.787,313.191h-10.894c-4.512,0-8.17,3.658-8.17,8.17s3.658,8.17,8.17,8.17h10.894c4.512,0,8.17-3.658,8.17-8.17
			S154.299,313.191,149.787,313.191z"/>
	</g>
</g>
<g>
	<g>
		<path d="M186.673,240.481l-7.703-7.703c-3.191-3.191-8.364-3.191-11.554,0c-3.191,3.191-3.191,8.364,0,11.554l7.703,7.703
			c1.595,1.595,3.686,2.393,5.777,2.393c2.091,0,4.182-0.797,5.777-2.393C189.864,248.844,189.864,243.671,186.673,240.481z"/>
	</g>
</g>
<g>
	<g>
		<path d="M264.17,298.256V247.83c0-4.512-3.658-8.17-8.17-8.17c-4.512,0-8.17,3.658-8.17,8.17v50.427
			c-9.509,3.373-16.34,12.454-16.34,23.105c0,10.652,6.831,19.733,16.34,23.105v12.299c0,4.512,3.658,8.17,8.17,8.17
			c4.512,0,8.17-3.658,8.17-8.17v-12.299c9.509-3.373,16.34-12.454,16.34-23.105C280.511,310.71,273.679,301.629,264.17,298.256z
			 M256,329.532c-4.506,0-8.17-3.665-8.17-8.17c0-4.506,3.665-8.17,8.17-8.17c4.506,0,8.17,3.665,8.17,8.17
			C264.17,325.867,260.506,329.532,256,329.532z"/>
	</g>
</g>
<g>
	<g>
		<path d="M256,163.404c-87.098,0-157.957,70.86-157.957,157.957c0,35.787,12.36,70.873,34.803,98.796
			c2.827,3.516,7.969,4.077,11.486,1.249c3.518-2.827,4.076-7.969,1.25-11.486c-20.41-25.395-31.198-56.018-31.198-88.56
			c0-78.088,63.529-141.617,141.617-141.617s141.617,63.529,141.617,141.617S334.088,462.979,256,462.979
			c-32.541,0-63.164-10.788-88.559-31.199c-3.52-2.828-8.66-2.268-11.486,1.249c-2.827,3.518-2.268,8.66,1.25,11.486
			c27.922,22.444,63.009,34.804,98.795,34.804c87.098,0,157.957-70.86,157.957-157.957S343.098,163.404,256,163.404z"/>
	</g>
</g>
</svg>